<?xml version="1.0" encoding="UTF-8" standalone="no"?>
<!-- Created with Inkscape (http://www.inkscape.org/) -->

<svg
   width="1080"
   height="1080"
   viewBox="0 0 1080 1080"
   version="1.1"
   id="svg1"
   inkscape:version="1.3 (0e150ed6c4, 2023-07-21)"
   sodipodi:docname="rysunek.svg"
   xmlns:inkscape="http://www.inkscape.org/namespaces/inkscape"
   xmlns:sodipodi="http://sodipodi.sourceforge.net/DTD/sodipodi-0.dtd"
   xmlns="http://www.w3.org/2000/svg"
   xmlns:svg="http://www.w3.org/2000/svg">
  <sodipodi:namedview
     id="namedview1"
     pagecolor="#ffffff"
     bordercolor="#000000"
     borderopacity="0.25"
     inkscape:showpageshadow="2"
     inkscape:pageopacity="0.0"
     inkscape:pagecheckerboard="0"
     inkscape:deskcolor="#d1d1d1"
     inkscape:document-units="px"
     inkscape:zoom="0.5"
     inkscape:cx="392"
     inkscape:cy="472"
     inkscape:window-width="1664"
     inkscape:window-height="1020"
     inkscape:window-x="128"
     inkscape:window-y="0"
     inkscape:window-maximized="0"
     inkscape:current-layer="layer2"
     showguides="false">
    <sodipodi:guide
       position="1242,1316"
       orientation="0,-1"
       id="guide6"
       inkscape:locked="false" />
  </sodipodi:namedview>
  <defs
     id="defs1">
    <rect
       x="73.539105"
       y="746.70476"
       width="889.54033"
       height="127.27922"
       id="rect30" />
    <inkscape:perspective
       sodipodi:type="inkscape:persp3d"
       inkscape:vp_x="0 : 540 : 1"
       inkscape:vp_y="0 : 1000 : 0"
       inkscape:vp_z="1080 : 540 : 1"
       inkscape:persp3d-origin="540 : 360 : 1"
       id="perspective12" />
  </defs>
  <rect
     style="fill:#c5c5c5;fill-opacity:1;stroke:#000000;stroke-width:0"
     id="rect29"
     width="1168.9325"
     height="1168.9325"
     x="-1047.2498"
     y="310.07156"
     transform="matrix(0.9239199,0,0,0.9239199,967.57488,-286.4813)" />
  <g
     inkscape:label="Warstwa 1"
     inkscape:groupmode="layer"
     id="layer1"
     transform="rotate(90,535.08576,546.87993)"
     style="display:none">
    <circle
       style="display:none;fill:#000000;stroke-width:0.931223"
       id="path1"
       cx="529.62"
       cy="543.37988"
       r="540" />
    <circle
       style="mix-blend-mode:screen;fill:#ffffff;fill-opacity:1;stroke-width:0.713926"
       id="path1-8"
       cx="639.04004"
       cy="-579.9657"
       r="413.99423"
       inkscape:label="path1-8"
       transform="scale(1,-1)" />
    <g
       id="g6"
       transform="matrix(0,1.1,-1.1,0,1261.9134,-247.1766)"
       style="display:inline">
      <circle
         style="fill:#000000;stroke-width:0.558734"
         id="path1-0"
         cx="717.59814"
         cy="-533.81781"
         r="324"
         transform="scale(1,-1)" />
      <circle
         style="mix-blend-mode:screen;fill:#ffffff;fill-opacity:1;stroke-width:0.428356"
         id="path1-8-0"
         cx="-636.0976"
         cy="533.81781"
         r="248.39655"
         inkscape:label="path1-8"
         transform="scale(-1,1)" />
      <circle
         style="fill:#f0f26c;fill-opacity:1"
         id="path5"
         cx="-635.54022"
         cy="530.18146"
         r="184.77602"
         transform="scale(-1,1)" />
      <g
         id="g17"
         style="display:none">
        <circle
           style="fill:#d6126b;fill-opacity:1;stroke-width:0.295198"
           id="path5-3"
           cx="-339.41202"
           cy="-532.68329"
           transform="scale(-1)"
           r="54.545456" />
        <circle
           style="fill:#d6126b;fill-opacity:1;stroke-width:0.214018"
           id="path5-3-1"
           cx="-443.98352"
           cy="-917.2052"
           transform="scale(-1)"
           r="39.545456" />
        <circle
           style="display:inline;fill:#d6126b;fill-opacity:1;stroke-width:0.214018"
           id="path5-3-1-4"
           transform="scale(-1)"
           r="39.545456"
           cy="-703.49237"
           cx="-252.04031" />
        <circle
           style="display:inline;fill:#d6126b;fill-opacity:1;stroke-width:0.214018"
           id="path5-3-1-4-6"
           cx="-252.04031"
           cy="-382.97928"
           transform="scale(-1)"
           r="39.545456" />
        <circle
           style="fill:#d6126b;fill-opacity:1;stroke-width:0.214019"
           id="path5-3-1-4-6-4"
           cx="-443.98352"
           cy="-157.70316"
           transform="scale(-1)"
           r="39.545456" />
        <path
           style="fill:none;fill-rule:evenodd;stroke:#000000;stroke-width:0.909091px;stroke-linecap:butt;stroke-linejoin:miter;stroke-opacity:1"
           d="M 417.55978,887.78456 278.46405,732.91301"
           id="path12"
           inkscape:connector-type="polyline"
           inkscape:connector-curvature="0"
           inkscape:connection-start="#path5-3-1"
           inkscape:connection-end="#path5-3-1-4" />
        <path
           style="fill:none;fill-rule:evenodd;stroke:#d6126b;stroke-width:40.6181;stroke-linecap:butt;stroke-linejoin:miter;stroke-dasharray:none;stroke-opacity:1"
           d="m 259.96566,708.16916 182.8285,200.47027"
           id="path13"
           inkscape:connector-type="polyline"
           inkscape:connector-curvature="0" />
        <path
           style="fill:none;fill-rule:evenodd;stroke:#d6126b;stroke-width:41.0006;stroke-linecap:butt;stroke-linejoin:miter;stroke-dasharray:none;stroke-opacity:1"
           d="M 259.91785,690.20049 338.22537,525.34362"
           id="path14"
           inkscape:connector-type="polyline"
           inkscape:connector-curvature="0" />
        <path
           style="fill:none;fill-rule:evenodd;stroke:#d6126b;stroke-width:40.6181;stroke-linecap:butt;stroke-linejoin:miter;stroke-dasharray:none;stroke-opacity:1"
           d="M 257.09678,360.92456 439.92528,160.45429"
           id="path13-4"
           inkscape:connector-type="polyline"
           inkscape:connector-curvature="0" />
        <path
           style="fill:none;fill-rule:evenodd;stroke:#d6126b;stroke-width:41.0006;stroke-linecap:butt;stroke-linejoin:miter;stroke-dasharray:none;stroke-opacity:1"
           d="M 257.04897,378.89323 335.35649,543.7501"
           id="path14-9"
           inkscape:connector-type="polyline"
           inkscape:connector-curvature="0" />
      </g>
    </g>
  </g>
  <g
     inkscape:groupmode="layer"
     id="layer2"
     inkscape:label="main"
     transform="matrix(0,0.9239199,-0.9239199,0,961.63889,-286.4813)">
    <path
       id="rect27-0-2-3-4"
       style="fill:#000000;fill-opacity:1;stroke:#000000;stroke-width:0;stroke-dasharray:none;stroke-opacity:1"
       d="m 742.57644,923.44038 c 0,43.15893 26.05625,77.90532 58.42192,77.90532 h 9.02391 122.06804 21.16585 37.25606 26.16368 a 26.294844,26.504854 0 0 0 16.4038,5.8572 26.294844,26.504854 0 0 0 26.2935,-26.5044 26.294844,26.504854 0 0 0 -26.2935,-26.50443 26.294844,26.504854 0 0 0 -16.4934,5.8668 h -63.33014 v 0.026 h -47.60547 -2.58735 -1.65574 -25.82875 -57.4195 -4.24545 c -15.2245,0 -27.47975,-16.34503 -27.47975,-36.64668 0,-0.0971 0.009,-0.19006 0.009,-0.28633 h -43.85771 c -2.6e-4,0.0959 -0.009,0.18972 -0.009,0.28633 z m 0.0472,-0.57977 c 0,0.0959 0.009,0.18994 0.009,0.28633 h 43.8577 c 0,-0.0959 -0.009,-0.18984 -0.009,-0.28633 0,-20.30164 12.25525,-36.64671 27.47976,-36.64671 h 4.24543 57.41951 25.82876 1.65572 2.58736 47.60547 v 0.0263 h 63.33005 a 26.294844,26.504854 0 0 0 16.4935,5.86681 26.294844,26.504854 0 0 0 26.2935,-26.50446 26.294844,26.504854 0 0 0 -26.2935,-26.50446 26.294844,26.504854 0 0 0 -16.4038,5.85727 H 990.5594 953.30335 932.1375 810.06946 801.04554 c -32.36565,0 -58.4219,34.74645 -58.4219,77.90536 z"
       inkscape:label="rect27-0-2-3-4" />
    <path
       id="rect27-0-2-9"
       style="fill:#000000;fill-opacity:1;stroke:#000000;stroke-width:0;stroke-dasharray:none;stroke-opacity:1"
       d="m 743.91001,627.53222 c 0,40.86292 23.63762,74.13447 53.93941,77.56414 h 184.90374 v -0.10022 h 21.82574 c 30.3019,-3.42968 53.9394,-36.70124 53.9394,-77.56413 0,-43.15889 -26.3578,-77.90532 -59.09759,-77.90532 h -1.70113 c -0.92231,-0.11218 -1.85997,-0.17656 -2.81535,-0.17656 H 980.8564 c -12.09679,0 -21.83533,9.27039 -21.83533,20.78557 0,11.51519 9.73854,20.78557 21.83533,20.78557 h 7.78737 v 0.0263 c 14.31873,1.52852 25.50953,17.202 25.50953,36.48449 0,20.30176 -12.3947,36.64672 -27.7951,36.64672 h -4.297 -58.0836 -2.46942 v -92.54252 c 0,-2.01763 -0.29333,-3.96045 -0.79681,-5.81434 A 17.774148,22.134824 0 0 0 904.05089,549.584 v -0.0429 h -3.98911 c -0.19379,-0.005 -0.38227,-0.0287 -0.5774,-0.0287 h -0.38644 c -0.19514,0 -0.38362,0.0236 -0.57741,0.0287 h -13.88328 c -0.21895,-0.006 -0.43791,-0.0167 -0.65855,-0.0167 h -14.04784 c -0.0313,0 -0.0619,0.002 -0.0931,0.002 h -3.02527 -47.13732 v 0.10022 h -7.54168 -1.0021 v -0.012 h -0.0405 v 0.012 h -8.0833 c -32.73972,0 -59.09755,34.74645 -59.09755,77.90532 z m 44.36498,0 c 0,-20.24477 12.32804,-36.54824 27.66872,-36.63957 h 54.20904 v -0.0214 h 6.92127 v 73.20756 h -41.60449 -15.79437 v 0.10023 h -3.60505 c -15.40071,0 -27.79512,-16.34497 -27.79512,-36.64674 z" />
    <ellipse
       style="fill:#000000;fill-opacity:1;stroke:#000000;stroke-width:0;stroke-dasharray:none;stroke-opacity:1"
       id="path27-9"
       cx="-771.63202"
       cy="-774.49127"
       rx="26.598974"
       ry="26.504854"
       transform="scale(-1)" />
    <path
       id="rect24-6-0"
       style="display:inline;fill:#357636;fill-opacity:1;stroke:#000000;stroke-width:0"
       d="m 935.25948,94.533379 106.05992,14.828501 c 18.5822,2.59809 21.1064,3.18283 21.1064,25.5556 v 13.88205 c 0,22.37288 -1.7309,22.97669 -20.3149,25.5557 l -106.85142,14.8285 c -18.58403,2.57924 -33.77032,-18.01132 -33.77032,-40.3842 v -13.88205 c 0,-22.37277 15.18814,-42.982188 33.77032,-40.384101 z" />
    <path
       id="rect27-0-2-7"
       style="display:inline;fill:#357636;fill-opacity:1;stroke:#000000;stroke-width:0;stroke-dasharray:none;stroke-opacity:1"
       d="m 745.56114,428.21809 c 0,41.29626 24.14865,74.80569 54.91284,77.62855 h 156.65999 c -0.10383,-0.83233 -0.17417,-1.67478 -0.17417,-2.53616 v -38.44566 h -46.43828 -2.61728 -1.67487 -26.1275 -58.08363 -4.29692 c -15.40066,0 -27.79521,-16.34493 -27.79521,-36.64673 0,-20.24479 12.32812,-36.54824 27.66876,-36.63956 h 54.28774 123.47991 1.00206 v 0.012 h 0.0405 v -0.012 h 8.08572 c 32.74,0 59.0976,-34.7464 59.0976,-77.90532 0,-43.15891 -26.3576,-77.90531 -59.0976,-77.90531 h -9.12833 -123.47992 -58.21963 c -12.31963,-3.76789 -21.45837,-18.23966 -21.45837,-35.65899 0,-20.30175 12.39687,-36.64673 27.79759,-36.64673 h 4.29454 58.08363 26.1275 1.67487 2.61729 51.77782 V 122.2036 h -39.27357 -26.12749 -1.67487 -2.61728 -58.0884 -27.75466 -2.10432 c -32.74001,0 -59.09762,34.74629 -59.09762,77.90531 0,43.15885 26.35761,77.90532 59.09762,77.90532 h 9.12828 123.47991 58.21963 c 12.31968,3.76788 21.45838,18.24198 21.45838,35.66136 0,20.24485 -12.3282,36.54587 -27.66876,36.63719 H 937.2669 813.7846 812.78254 v -0.012 h -0.0405 v 0.012 h -8.08328 c -32.73998,0 -59.09763,34.7464 -59.09763,77.90531 z m 63.43749,-306.01927 h 0.0429 v -0.031 h -0.0429 z" />
    <path
       id="rect27-0-2-9-0"
       style="fill:#000000;fill-opacity:1;stroke:#000000;stroke-width:0;stroke-dasharray:none;stroke-opacity:1"
       d="m 746.54236,-16.467971 c 0,40.862989 23.63762,74.134465 53.9394,77.564142 H 985.3855 V 60.99595 h 21.8258 c 30.3019,-3.429677 53.9394,-36.701154 53.9394,-77.564131 0,-43.158956 -26.3576,-77.90531 -59.0976,-77.90531 h -8.0833 v -0.012 h -0.0405 v 0.012 h -1.00206 -123.4823 -47.13733 v 0.10022 h -7.54169 -1.00206 v -0.012 h -0.0405 v 0.012 h -8.08328 c -32.74001,0 -59.09762,34.746356 -59.09762,77.905312 z m 44.36497,0 c 0,-20.244815 12.3281,-36.548236 27.66875,-36.639564 h 54.28774 112.52168 v -0.100222 h 3.73148 c 15.34062,0.09131 27.66872,16.394761 27.66872,36.639576 0,20.3017975 -12.3945,36.646718 -27.79517,36.646718 h -4.29692 -58.08363 -26.1275 -1.67487 -2.61729 -58.0884 -15.79436 v 0.100222 h -3.60503 c -15.40066,0 -27.7952,-16.3449205 -27.7952,-36.64673 z" />
    <path
       id="path27-9-6-0"
       style="fill:#dedede;fill-opacity:1;stroke:#000000;stroke-width:0;stroke-dasharray:none;stroke-opacity:1"
       d="m 934.97892,125.54141 a 10.831679,10.79335 0 0 0 10.83178,10.79361 10.831679,10.79335 0 0 0 10.83178,-10.79361 10.831679,10.79335 0 0 0 -10.83178,-10.79361 10.831679,10.79335 0 0 0 -10.83178,10.79361 z m 0.13122,30.23832 a 10.831679,10.79335 0 0 0 10.83178,10.79361 10.831679,10.79335 0 0 0 10.83178,-10.79361 10.831679,10.79335 0 0 0 -10.83178,-10.7936 10.831679,10.79335 0 0 0 -10.83178,10.7936 z" />
    <rect
       style="fill:#000000;fill-opacity:1;stroke:#000000;stroke-width:0"
       id="rect2-9"
       width="40.311398"
       height="217.23857"
       x="-793.83838"
       y="842.13342"
       transform="rotate(-90)"
       ry="20.155699" />
    <rect
       style="fill:#357636;fill-opacity:1;stroke:#000000;stroke-width:0"
       id="rect2-9-5"
       width="40.311398"
       height="217.23857"
       x="-505.84641"
       y="842.13342"
       transform="rotate(-90)"
       ry="20.155699" />
    <rect
       style="fill:#000000;fill-opacity:1;stroke:#000000;stroke-width:0"
       id="rect2"
       width="40.311398"
       height="217.23857"
       x="-793.83838"
       y="818.31305"
       transform="rotate(-90)"
       ry="20.155699" />
  </g>
  <g
     inkscape:groupmode="layer"
     id="layer3"
     inkscape:label="bottom"
     style="display:inline"
     transform="translate(39.503656)">
    <path
       id="rect27-0-2-3-4-9"
       style="fill:#000000;fill-opacity:1;stroke:#000000;stroke-width:0;stroke-dasharray:none;stroke-opacity:1"
       d="m 1108.8011,605.64286 c 0,14.65731 8.849,26.45763 19.8408,26.45763 h 3.0646 41.4559 7.1882 12.6526 8.8856 a 8.9300597,9.0013823 0 0 0 5.5708,1.98917 8.9300597,9.0013823 0 0 0 8.9296,-9.00122 8.9300597,9.0013823 0 0 0 -8.9296,-9.00123 8.9300597,9.0013823 0 0 0 -5.6013,1.99244 h -21.5077 v 0.008 h -16.1675 -0.8786 -0.5624 -8.7717 -19.5005 -1.4417 c -5.1705,0 -9.3325,-5.55097 -9.3325,-12.44567 0,-0.033 0.011,-0.0646 0.011,-0.0972 h -14.8947 c 0,0.0326 -0.011,0.0645 -0.011,0.0972 z m 0.016,-0.19689 c 0,0.0326 0.011,0.0646 0.011,0.0972 h 14.8946 c 0,-0.0326 -0.011,-0.0645 -0.011,-0.0972 0,-6.8947 4.1621,-12.44569 9.3324,-12.44569 h 1.4419 19.5003 8.7718 0.5623 0.8787 16.1674 v 0.008 h 21.5077 a 8.9300597,9.0013823 0 0 0 5.6013,1.99244 8.9300597,9.0013823 0 0 0 8.9297,-9.00126 8.9300597,9.0013823 0 0 0 -8.9297,-9.00123 8.9300597,9.0013823 0 0 0 -5.5708,1.98919 h -8.8855 -12.6527 -7.1882 -41.4557 -3.0648 c -10.9917,0 -19.8407,11.80033 -19.8407,26.45764 z"
       transform="matrix(0,0.9239199,-0.9239199,0,967.57488,-286.4813)" />
    <path
       id="rect27-0-2-9-0-5"
       style="fill:#000000;fill-opacity:1;stroke:#000000;stroke-width:0;stroke-dasharray:none;stroke-opacity:1"
       d="m 1110.0755,528.383 c 0,14.69007 8.2764,26.65013 18.8858,27.8831 h 64.7392 v -0.0349 h 7.6432 c 10.6092,-1.23296 18.884,-13.19487 18.884,-27.88495 0,-15.51547 -9.2269,-28.00574 -20.6902,-28.00574 h -2.831 v -0.005 h -0.014 v 0.005 h -0.3513 -17.0049 v 0.0293 c -3.4791,0.2104 -6.2186,3.15532 -6.2186,6.78223 v 16.40182 c 0,3.76445 2.9517,6.79503 6.6179,6.79503 3.6665,0 6.618,-3.03058 6.618,-6.79503 v -8.34369 h 7.3472 v -0.0349 h 1.3069 c 5.3708,0.0328 9.6879,5.89297 9.6879,13.17089 0,7.29841 -4.3403,13.17454 -9.7326,13.17454 h -1.5047 -20.3352 -9.1497 -0.5847 -0.9164 -20.3388 -5.5305 v 0.0366 h -1.2623 c -5.3922,0 -9.7326,-5.87613 -9.7326,-13.17453 0,-7.27793 4.3168,-13.13989 9.6881,-13.17273 h 4.3109 v 1.02695 c 0,4.08283 3.2013,7.368 7.1778,7.368 3.9764,0 7.1778,-3.28517 7.1778,-7.368 v -8.45903 c 0,-4.08282 -3.2014,-7.36984 -7.1778,-7.36984 -0.046,0 -0.093,0.003 -0.1391,0.004 v -0.0714 h -10.0428 v 0.0349 h -2.6405 -0.3512 v -0.004 h -0.014 v 0.004 h -2.8294 c -11.4632,0 -20.6918,12.49209 -20.6918,28.00758 z"
       transform="matrix(0,0.9239199,-0.9239199,0,967.57488,-286.4813)" />
    <path
       id="rect27-0-2-3-4-9-6"
       style="fill:#000000;fill-opacity:1;stroke:#000000;stroke-width:0;stroke-dasharray:none;stroke-opacity:1"
       d="m 1110.5858,410.7957 c 0,14.65731 8.849,26.45763 19.8408,26.45763 h 3.0646 41.4559 7.1882 12.6526 8.8856 a 8.9300597,9.0013823 0 0 0 5.5708,1.98917 8.9300597,9.0013823 0 0 0 8.9296,-9.00122 8.9300597,9.0013823 0 0 0 -8.9296,-9.00123 8.9300597,9.0013823 0 0 0 -5.6013,1.99244 h -21.5077 v 0.008 h -16.1675 -0.8786 -0.5624 -8.7717 -19.5005 -1.4417 c -5.1705,0 -9.3325,-5.55097 -9.3325,-12.44567 0,-0.033 0.011,-0.0646 0.011,-0.0972 h -14.8947 c 0,0.0326 -0.011,0.0645 -0.011,0.0972 z m 0.016,-0.19689 c 0,0.0326 0.011,0.0646 0.011,0.0972 h 14.8946 c 0,-0.0326 -0.011,-0.0645 -0.011,-0.0972 0,-6.8947 4.1621,-12.44569 9.3324,-12.44569 h 1.4419 19.5003 8.7718 0.5623 0.8787 16.1674 v 0.008 h 21.5077 a 8.9300597,9.0013823 0 0 0 5.6013,1.99244 8.9300597,9.0013823 0 0 0 8.9297,-9.00126 8.9300597,9.0013823 0 0 0 -8.9297,-9.00123 8.9300597,9.0013823 0 0 0 -5.5708,1.98919 h -8.8855 -12.6527 -7.1882 -41.4557 -3.0648 c -10.9917,0 -19.8407,11.80033 -19.8407,26.45764 z"
       transform="matrix(0,0.9239199,-0.9239199,0,967.57488,-286.4813)" />
    <path
       id="rect27-0-2-9-3"
       style="fill:#000000;fill-opacity:1;stroke:#000000;stroke-width:0;stroke-dasharray:none;stroke-opacity:1"
       d="m 1109.6246,673.7619 c 0,13.95579 8.0729,25.31893 18.4218,26.49025 h 63.1496 v -0.0342 h 7.4541 c 10.3489,-1.17133 18.4218,-12.53446 18.4218,-26.49025 0,-14.73992 -9.0019,-26.60677 -20.1835,-26.60677 h -0.5809 c -0.315,-0.0383 -0.6353,-0.0603 -0.9616,-0.0603 h -4.7977 c -4.1314,0 -7.4573,3.16609 -7.4573,7.09883 0,3.93275 3.3259,7.09884 7.4573,7.09884 h 2.6596 v 0.009 c 4.8903,0.52203 8.7122,5.87495 8.7122,12.46044 0,6.9336 -4.2331,12.51585 -9.4928,12.51585 h -1.4675 -19.8371 -0.8434 v -31.60578 c 0,-0.68907 -0.1002,-1.3526 -0.2721,-1.98575 a 6.0703525,7.5596413 0 0 0 -5.69,-5.51154 v -0.0147 h -1.3624 c -0.066,-0.002 -0.1306,-0.01 -0.1972,-0.01 h -0.132 c -0.067,0 -0.131,0.008 -0.1972,0.01 h -4.7415 c -0.075,-0.002 -0.1495,-0.006 -0.2249,-0.006 h -4.7977 c -0.011,0 -0.021,6.8e-4 -0.032,6.8e-4 h -1.0332 -16.0987 v 0.0342 h -2.5757 -0.3422 v -0.004 h -0.014 v 0.004 h -2.7606 c -11.1815,0 -20.1834,11.86685 -20.1834,26.60677 z m 15.1519,0 c 0,-6.91414 4.2103,-12.48221 9.4496,-12.51341 h 18.5139 v -0.007 h 2.3637 v 25.00236 h -14.209 -5.3942 v 0.0342 h -1.2312 c -5.2598,0 -9.4928,-5.58225 -9.4928,-12.51585 z"
       transform="matrix(0,0.9239199,-0.9239199,0,967.57488,-286.4813)" />
    <path
       id="rect27-0-2-9-3-4"
       style="fill:#000000;fill-opacity:1;stroke:#000000;stroke-width:0;stroke-dasharray:none;stroke-opacity:1"
       d="m 1111.5481,337.52927 c 0,13.95579 8.0729,25.31893 18.4218,26.49025 h 63.1496 v -0.0342 h 7.4541 c 10.3489,-1.17133 18.4218,-12.53446 18.4218,-26.49025 0,-14.73992 -9.0019,-26.60677 -20.1835,-26.60677 h -0.5809 c -0.315,-0.0383 -0.6353,-0.0603 -0.9616,-0.0603 h -4.7977 c -4.1314,0 -7.4573,3.16609 -7.4573,7.09883 0,3.93275 3.3259,7.09884 7.4573,7.09884 h 2.6596 v 0.009 c 4.8903,0.52203 8.7122,5.87495 8.7122,12.46044 0,6.9336 -4.2331,12.51585 -9.4928,12.51585 h -1.4675 -19.8371 -0.8434 v -31.60578 c 0,-0.68907 -0.1002,-1.3526 -0.2721,-1.98575 a 6.0703525,7.5596413 0 0 0 -5.69,-5.51154 v -0.0147 h -1.3624 c -0.066,-0.002 -0.1306,-0.01 -0.1972,-0.01 h -0.132 c -0.067,0 -0.131,0.008 -0.1972,0.01 h -4.7415 c -0.075,-0.002 -0.1495,-0.006 -0.2249,-0.006 h -4.7977 c -0.011,0 -0.021,6.8e-4 -0.032,6.8e-4 h -1.0332 -16.0987 v 0.0342 h -2.5757 -0.3422 v -0.004 h -0.014 v 0.004 h -2.7606 c -11.1815,0 -20.1834,11.86685 -20.1834,26.60677 z m 15.1519,0 c 0,-6.91414 4.2103,-12.48221 9.4496,-12.51341 h 18.5139 v -0.007 h 2.3637 v 25.00236 h -14.209 -5.3942 v 0.0342 h -1.2312 c -5.2598,0 -9.4928,-5.58225 -9.4928,-12.51585 z"
       transform="matrix(0,0.9239199,-0.9239199,0,967.57488,-286.4813)" />
    <ellipse
       style="fill:#000000;fill-opacity:1;stroke:#000000;stroke-width:0;stroke-dasharray:none;stroke-opacity:1"
       id="path27-9-3"
       cx="-1125.6605"
       cy="-468.29044"
       rx="9.4542217"
       ry="9.4207687"
       transform="matrix(0,-0.9239199,0.9239199,0,967.57488,-286.4813)" />
    <rect
       style="fill:#000000;fill-opacity:1;stroke:#000000;stroke-width:0"
       id="rect2-90"
       width="14.328106"
       height="77.214317"
       x="-475.43765"
       y="1139.462"
       transform="matrix(0.9239199,0,0,0.9239199,967.57488,-286.4813)"
       ry="7.164053" />
  </g>
</svg>
