<?xml version="1.0" encoding="UTF-8" standalone="no"?>
<!-- Created with Inkscape (http://www.inkscape.org/) -->

<svg
   width="512"
   height="512"
   viewBox="0 0 512 512"
   version="1.1"
   id="svg1"
   inkscape:version="1.3 (0e150ed6c4, 2023-07-21)"
   sodipodi:docname="logo-min.svg"
   xmlns:inkscape="http://www.inkscape.org/namespaces/inkscape"
   xmlns:sodipodi="http://sodipodi.sourceforge.net/DTD/sodipodi-0.dtd"
   xmlns="http://www.w3.org/2000/svg"
   xmlns:svg="http://www.w3.org/2000/svg">
  <sodipodi:namedview
     id="namedview1"
     pagecolor="#ffffff"
     bordercolor="#000000"
     borderopacity="0.25"
     inkscape:showpageshadow="2"
     inkscape:pageopacity="0.0"
     inkscape:pagecheckerboard="0"
     inkscape:deskcolor="#d1d1d1"
     inkscape:document-units="px"
     inkscape:zoom="0.77636719"
     inkscape:cx="279.50692"
     inkscape:cy="375.46667"
     inkscape:window-width="1920"
     inkscape:window-height="991"
     inkscape:window-x="-9"
     inkscape:window-y="-9"
     inkscape:window-maximized="1"
     inkscape:current-layer="layer1" />
  <defs
     id="defs1" />
  <g
     inkscape:label="Warstwa 1"
     inkscape:groupmode="layer"
     id="layer1">
    <circle
       style="fill:#2f2f2f;fill-opacity:1;stroke:#000000;stroke-width:0"
       id="path1"
       cx="256"
       cy="256"
       r="256" />
    <g
       id="g1"
       transform="translate(-21.231075,4.503015)">
      <path
         id="rect24-6-0"
         style="display:inline;fill:#357636;fill-opacity:1;stroke:#000000;stroke-width:0"
         d="m 467.13875,279.84722 -13.70035,97.99087 c -2.40042,17.16846 -2.94068,19.50062 -23.61132,19.50062 h -12.82591 c -20.67075,0 -21.22862,-1.59921 -23.61142,-18.76934 l -13.70034,-98.72215 c -2.38301,-17.17016 16.64101,-31.20108 37.31176,-31.20108 h 12.82591 c 20.67064,0 39.71209,14.03263 37.31167,31.20108 z" />
      <path
         id="rect27-0-2-7"
         style="display:inline;fill:#357636;fill-opacity:1;stroke:#000000;stroke-width:0;stroke-dasharray:none;stroke-opacity:1"
         d="m 158.84081,104.58114 c -38.15444,0 -69.114471,22.31142 -71.722571,50.73507 v 144.74128 c 0.76901,-0.0959 1.54737,-0.16092 2.34321,-0.16092 h 35.520711 v -42.90525 -2.41816 -1.54744 -24.13972 -53.66462 -3.97001 c 0,-14.22898 15.10141,-25.68055 33.85865,-25.68055 18.70456,0 33.76764,11.3902 33.85201,25.56372 v 50.15752 114.08555 0.92582 h -0.0111 v 0.0374 h 0.0111 v 7.47056 c 0,30.24914 32.10289,54.60145 71.97828,54.60145 39.87537,0 71.97827,-24.35231 71.97827,-54.60145 v -8.43383 -114.08555 -53.79028 c 3.48122,-11.38235 16.85198,-19.82581 32.94605,-19.82581 18.75719,0 33.85864,11.45371 33.85864,25.68275 v 3.96781 53.66462 24.13971 1.54745 2.41817 47.83856 h 38.11962 v -36.28564 -24.13971 -1.54744 -2.41816 -53.66903 -25.64308 -1.94422 c 0,-30.24915 -32.10279,-54.60147 -71.97826,-54.60147 -39.87532,0 -71.97828,24.35232 -71.97828,54.60147 v 8.4338 114.08554 53.79028 c -3.48122,11.3824 -16.85413,19.82582 -32.94824,19.82582 -18.70462,0 -33.76546,-11.39027 -33.84983,-25.56372 v -50.15752 -114.08775 -0.92583 h 0.0111 v -0.0374 h -0.0111 v -7.4683 c 0,-30.24914 -32.10289,-54.6015 -71.97826,-54.6015 z M 441.5781,163.1923 v 0.0396 h 0.0286 v -0.0396 z" />
      <path
         id="path27-9-6-0"
         style="fill:#dedede;fill-opacity:1;stroke:#000000;stroke-width:0;stroke-dasharray:none;stroke-opacity:1"
         d="m 438.48981,279.588 a 9.9721909,10.007604 0 0 0 -9.97243,10.0077 9.9721909,10.007604 0 0 0 9.97243,10.00769 9.9721909,10.007604 0 0 0 9.97243,-10.00769 9.9721909,10.007604 0 0 0 -9.97243,-10.0077 z m -27.93778,0.12124 a 9.9721909,10.007604 0 0 0 -9.97243,10.00769 9.9721909,10.007604 0 0 0 9.97243,10.0077 9.9721909,10.007604 0 0 0 9.97242,-10.0077 9.9721909,10.007604 0 0 0 -9.97242,-10.00769 z" />
      <rect
         style="fill:#357636;fill-opacity:1;stroke:#000000;stroke-width:0"
         id="rect2-9-5"
         width="37.244503"
         height="200.71104"
         x="87.118454"
         y="193.8062"
         ry="18.622252" />
    </g>
  </g>
</svg>
